<svg id="用户新增icon" xmlns="http://www.w3.org/2000/svg" width="35" height="35" viewBox="0 0 35 35">
  <rect id="矩形_158" data-name="矩形 158" width="35" height="35" fill="none"/>
  <g id="组_411" data-name="组 411" transform="translate(-58.333 -60.661)">
    <path id="路径_461" data-name="路径 461" d="M77.744,63.333A14.411,14.411,0,1,0,92.155,77.744,14.411,14.411,0,0,0,77.744,63.333Zm0,26.763a12.294,12.294,0,0,1-7.986-2.929,6.191,6.191,0,0,1,2.709-2.86,10.228,10.228,0,0,1,10.574,0,6.181,6.181,0,0,1,2.7,2.857,12.294,12.294,0,0,1-8,2.937Zm9.53-4.492A8.759,8.759,0,0,0,84.1,82.536a12.287,12.287,0,0,0-12.684,0,8.776,8.776,0,0,0-3.191,3.075,12.36,12.36,0,1,1,19.052-.01Z" fill="#3598f1"/>
    <path id="路径_462" data-name="路径 462" d="M357.147,220.223a5.147,5.147,0,1,0,5.147,5.147A5.153,5.153,0,0,0,357.147,220.223Zm0,8.235a3.088,3.088,0,1,1,3.088-3.088A3.092,3.092,0,0,1,357.147,228.458Z" transform="translate(-279.381 -151.843)" fill="#3598f1"/>
    <g id="组_412" data-name="组 412" transform="translate(58.333 60.661)">
      <line id="直线_7" data-name="直线 7" x2="5" transform="translate(24.5 18.5)" fill="none" stroke="#3598f1" stroke-linecap="round" stroke-width="1"/>
      <line id="直线_8" data-name="直线 8" x2="5" transform="translate(27 16) rotate(90)" fill="none" stroke="#3598f1" stroke-linecap="round" stroke-width="1"/>
    </g>
  </g>
</svg>
