<svg id="关注icon" xmlns="http://www.w3.org/2000/svg" width="35" height="35" viewBox="0 0 35 35">
  <rect id="矩形_158" data-name="矩形 158" width="35" height="35" fill="none"/>
  <g id="组_383" data-name="组 383" transform="translate(4 4)">
    <path id="路径_442" data-name="路径 442" d="M549.572,601.377a1.405,1.405,0,0,1,1.2.546l1.474,1.911,1.474-1.856a1.564,1.564,0,0,1,1.2-.546,1.526,1.526,0,0,1,1.529,1.529c0,1.692-2.4,3.876-4.2,5.132-1.747-1.256-4.2-3.439-4.2-5.132a1.574,1.574,0,0,1,1.529-1.583m0-1.911a3.425,3.425,0,0,0-3.439,3.439c0,3.821,6.114,7.425,6.114,7.425s6.115-3.6,6.115-7.425a3.425,3.425,0,0,0-3.439-3.439,3.241,3.241,0,0,0-2.675,1.256,3.4,3.4,0,0,0-2.675-1.256Z" transform="translate(-532.156 -584.126)" fill="#ff675b"/>
    <path id="路径_443" data-name="路径 443" d="M20.472,7.643A7.643,7.643,0,1,0,8.735,14.085,12.884,12.884,0,0,0,0,25.167a1.1,1.1,0,0,0,.218.71.778.778,0,0,0,.655.328H.983a.821.821,0,0,0,.6-.218.778.778,0,0,0,.328-.655A11.02,11.02,0,0,1,12.993,15.286H13.1a7.648,7.648,0,0,0,7.37-7.643Zm-7.643,5.732a5.732,5.732,0,1,1,5.732-5.732A5.732,5.732,0,0,1,12.829,13.375Z" fill="#f86400"/>
  </g>
</svg>
