<svg xmlns="http://www.w3.org/2000/svg" width="35" height="35" viewBox="0 0 35 35">
  <g id="审核icon" transform="translate(-276 -111)">
    <rect id="矩形_158" data-name="矩形 158" width="35" height="35" transform="translate(276 111)" fill="none"/>
    <g id="组_415" data-name="组 415" transform="translate(-6.9 -39.854)">
      <path id="路径_463" data-name="路径 463" d="M298.352,161.8a8.754,8.754,0,0,1,.9-3.9,7.183,7.183,0,0,0-2.24,13.079,2.13,2.13,0,0,1,.961,1.8,2.177,2.177,0,0,1-2.178,2.178h-4.364A3.534,3.534,0,0,0,287.9,178.5a3.664,3.664,0,0,0,3.668,3.668h18.6a3.6,3.6,0,0,0,0-7.2H305.9a2.177,2.177,0,0,1-2.178-2.178,2.138,2.138,0,0,1,.952-1.8,6.858,6.858,0,0,0,.723-.521A8.844,8.844,0,0,1,298.352,161.8Zm0,0" transform="translate(0 -3.864)" fill="#80deea"/>
      <path id="路径_464" data-name="路径 464" d="M341.851,732.373a1.437,1.437,0,1,0,0-2.873H321.737a1.437,1.437,0,1,0,0,2.873Zm0,0" transform="translate(-30.945 -549.8)" fill="#80deea"/>
      <path id="路径_465" data-name="路径 465" d="M530.292,161.04a7.175,7.175,0,0,0-8.773-7,8.843,8.843,0,0,0,6.151,12.558A7.159,7.159,0,0,0,530.292,161.04Zm0,0" transform="translate(-222.264)" fill="#bbf2f9"/>
    </g>
  </g>
</svg>
