<svg id="积分充值记录-icon" xmlns="http://www.w3.org/2000/svg" width="35" height="35" viewBox="0 0 35 35">
  <rect id="矩形_158" data-name="矩形 158" width="35" height="35" fill="none"/>
  <path id="路径_458" data-name="路径 458" d="M130.095,130.226c-1.408.687-2.095,1.44-2.095,2.259v2.259c0,.818.687,1.571,2.095,2.259a20.891,20.891,0,0,0,5.728,1.637,53.107,53.107,0,0,0,15.778,0A20.891,20.891,0,0,0,157.33,137c1.408-.687,2.095-1.44,2.095-2.259v-2.259c0-.818-.687-1.571-2.095-2.259a20.891,20.891,0,0,0-5.728-1.637,53.106,53.106,0,0,0-15.778,0,22.51,22.51,0,0,0-5.728,1.637M128,145.349V148.2c0,.818.687,1.571,2.095,2.259a20.891,20.891,0,0,0,5.728,1.637,53.106,53.106,0,0,0,15.778,0,20.891,20.891,0,0,0,5.728-1.637c1.408-.687,2.095-1.44,2.095-2.259v-2.979a19.446,19.446,0,0,1-6.645,2.226,54.98,54.98,0,0,1-18.135,0A19.446,19.446,0,0,1,128,145.218m0,6.678v3.044c0,.818.687,1.571,2.095,2.259a20.891,20.891,0,0,0,5.728,1.637,53.106,53.106,0,0,0,15.778,0,20.891,20.891,0,0,0,5.728-1.637c1.408-.687,2.095-1.44,2.095-2.259v-2.979a19.446,19.446,0,0,1-6.645,2.226,54.978,54.978,0,0,1-18.135,0A19.446,19.446,0,0,1,128,151.961m0-13.486v2.979c0,.818.687,1.571,2.095,2.259a20.891,20.891,0,0,0,5.728,1.637,53.106,53.106,0,0,0,15.778,0,20.891,20.891,0,0,0,5.728-1.637c1.408-.687,2.095-1.44,2.095-2.259v-2.979a19.445,19.445,0,0,1-6.645,2.226,54.979,54.979,0,0,1-18.135,0A19.445,19.445,0,0,1,128,138.475" transform="translate(-126 -126)" fill="#f86400"/>
</svg>
