<svg xmlns="http://www.w3.org/2000/svg" xmlns:xlink="http://www.w3.org/1999/xlink" width="155.672" height="144.412" viewBox="0 0 155.672 144.412">
  <defs>
    <linearGradient id="linear-gradient" x1="0.732" y1="-0.115" x2="0.68" y2="1.071" gradientUnits="objectBoundingBox">
      <stop offset="0" stop-color="#f98f90"/>
      <stop offset="1" stop-color="#f10b0e"/>
    </linearGradient>
    <linearGradient id="linear-gradient-3" x1="1.785" y1="1.196" x2="1.699" y2="-0.747" gradientUnits="objectBoundingBox">
      <stop offset="0" stop-color="#13497f"/>
      <stop offset="1" stop-color="#3984f3"/>
    </linearGradient>
    <clipPath id="clip-path">
      <path id="联合_2" data-name="联合 2" d="M78.342,78.57,63.083,65.589h-6.6v50.786l-11.842-7.288V7.744L56.479,0V52.608h6.6L78.342,40.765V0L89.956,7.744V48.281L75.154,59.44l14.8,12.526v38.488L76.976,117.74ZM0,76.975V35.982L29.151,14.12V30.062L13.209,43.953V69.916l10.7,10.248V66.5H36.438v38.715ZM98.155,89.956l8.426-5.465V36.21l-8.426-6.148V14.12l30.517,22.09V52.152L119.107,46V76.975l9.565-8.2V86.768L98.155,104.532Z" fill="#fff"/>
    </clipPath>
  </defs>
  <g id="logo2" transform="translate(-4116.438 -3009.574)" style="mix-blend-mode: normal;isolation: isolate">
    <g id="组_108" data-name="组 108" transform="translate(4116.438 3022.454)">
      <path id="路径_245" data-name="路径 245" d="M1552,4272.8v15.941l8.426,6.149v48.28l-8.426,5.466v14.576l30.517-17.764v-17.991l-9.565,8.2v-30.972l9.565,6.149v-15.942Z" transform="translate(-1453.845 -4258.681)" fill="url(#linear-gradient)"/>
      <path id="路径_248" data-name="路径 248" d="M1552,4272.8v15.941l8.426,6.149v48.28l-8.426,5.466v14.576l30.517-17.764v-17.991l-9.565,8.2v-30.972l9.565,6.149v-15.942Z" transform="translate(-1453.845 -4258.681)" fill="url(#linear-gradient)"/>
      <path id="路径_246" data-name="路径 246" d="M1590.389,4266.541l11.843-7.744v52.608h6.6l15.259-11.843V4258.8l11.615,7.744v40.537l-14.8,11.159,14.8,12.525v38.488l-12.981,7.288,1.367-39.172-15.259-12.98h-6.6v50.785l-11.843-7.288Z" transform="translate(-1545.752 -4258.797)" fill="url(#linear-gradient-3)"/>
      <path id="路径_247" data-name="路径 247" d="M1671.927,4272.8v15.941l-15.942,13.892V4328.6l10.7,10.248V4325.18h12.526V4363.9l-36.438-28.24v-40.993Z" transform="translate(-1642.776 -4258.681)" fill="url(#linear-gradient-3)"/>
    </g>
    <g id="蒙版组_5" data-name="蒙版组 5" transform="translate(4116.438 3022.454)" clip-path="url(#clip-path)">
      <path id="路径_250" data-name="路径 250" d="M71.892,60.766ZM99.708,91.577Zm.856,0h-.856A.593.593,0,0,0,100.564,91.577ZM73.176,0a73.176,73.176,0,1,0,73.176,73.176A73.143,73.143,0,0,0,73.176,0ZM119.82,28.671c-2.568,0-4.279,0-6.419,1.284-.856.428-1.284,1.284-2.568,1.712-.856.428-2.14,0-3,.428-3.423,1.284-3,8.131-7.275,7.275-2.14-.428-3.423-3-4.707-4.707-.856-1.284-2.568-2.568-1.284-4.279H92.861c.856-1.712,3-1.284,3.423-2.14.856-2.14-2.568-2.14-3.851-2.568,1.284-1.284,1.712.428,3,0s-.428-1.712-1.284-2.14c-.428,0-4.279,1.284-2.14-.856-3-1.712-5.991-3.851-8.987-5.563-.428,2.14,3.851,3.423,5.563,3.851-.428.856-1.712,2.14-2.568,1.712s-.428-2.14-2.14-1.712c-.856,2.568,2.14,1.712,2.568,3.423s-1.284.856-1.712.856c0,0-1.284-1.284-1.284-.428s1.712.856,2.14,1.712c-2.14,0-3.423-.856-5.135-1.712-2.14-1.284-3-1.284-5.563-1.284.856-.428,1.712-.428,2.568-.856.428-.428,1.712-1.712,1.712-2.14.428-1.284,0-1.284-1.284-2.14-.428-.428-1.712-2.14-3.423-2.14-4.707-.856-1.712,4.279-5.135,5.135-.856,0-2.568-.428-3,.428-.428.428-.428,1.712-.856,2.14-.856.856-2.14.856-3,1.712a11.536,11.536,0,0,0-3.423,3c-2.14,3.851,4.279,5.135,6.847,5.991,1.284.428,4.279,1.284,4.707,2.14.856,1.284-.856,2.14.856,3a1.49,1.49,0,0,0,2.14-.428c.856-.856-.428-.856-.428-2.14-.428-1.712.428-1.284,1.284-1.712,1.712-1.284,1.284-1.712.856-3.851-.428-.856-1.712-3.851-.428-4.707s4.279.428,5.563.856c1.284,0,2.14,1.712,2.568,2.568a3.638,3.638,0,0,0,2.14,1.284c1.284,0,.856-1.284,1.284-1.712,2.14-1.284,2.568.428,3.423,2.14a10.3,10.3,0,0,0,2.568,3.423c.428.428,3.423,2.14,3,3.423,0,.856-3,1.712-3.851,2.14-3,.856-8.559-1.712-8.987,3,1.284-.428,4.279-3,5.135-1.712.428.428-.428,1.284,0,2.14.428,1.712,1.712,1.284,3.423.856h-.428c1.712-.856,1.712-.856,2.568-2.14.428-.428.856-1.712,1.284-2.14,1.284-1.284,1.712-.428,2.568.428.428.428,2.14,3.423,1.712,3-2.568-.428-4.707-.428-6.847.856a15.013,15.013,0,0,1-3.423,2.14c-.428,0-3,.428-2.568,0a26.213,26.213,0,0,0,2.568-1.712c-1.712-.856-3,.856-4.279,1.712-1.284.428-1.712,1.712-2.568,3-.428.428-1.284.428-1.712,1.284-.428.428-.428,1.284-.856,2.14-.428.428-1.284,0-1.284.856-.428.856.428,1.284,0,2.14s-2.14,1.712-3,2.568l.428-.428c-.856.856-1.712,1.284-2.14,2.14.428,1.284,1.284,4.279.856,4.707-2.14,1.712-3.423-1.712-4.279-2.568-2.14-3-5.991-.856-8.987-.856-3.423.428-6.847,4.707-4.707,8.559a4.3,4.3,0,0,0,4.707,2.14c1.712-.428,2.14-3,3.851-3,3,0,0,3,0,4.279-.428.856.428,1.284,1.284,1.284s2.14-.428,2.568,0,.428,1.712.856,1.284c-1.284.856-.856,3.423.428,4.279s3,0,4.279.428c2.568.856,1.284,0,3.851-1.712,1.712-.856,1.712,0,3,0,.856,0,1.284-.856,2.568-.856a14.247,14.247,0,0,0,2.568,1.284H87.3a14.092,14.092,0,0,1,5.563,3c1.284.856,2.568.856,4.279,1.284,1.284.428,3.423,2.14,3.423,3.851,0,.428-1.284,1.712-1.284,2.14.428.428,2.568-.428,3-.428,0,.428-1.712,1.284-1.712.856,0,.428.856.856,1.284.856.856-2.568,2.14-.856,3.423-.428s3,.428,4.279.856,3.851,1.284,4.707,2.14c.856,1.284.428,3-.428,4.279-.856,1.712-2.568,2.14-3.423,3.851-.428,1.284,0,3-.428,4.279-.428,2.14-.856,1.284-2.14,2.568s0,.856-1.712,1.712-3,.428-4.279,2.14v-.428a8.872,8.872,0,0,0-.856,2.568c-.428,1.284-1.284,1.712-2.14,2.568-.428.428-3.423,4.707-3.423,4.279-.428-.428-2.568.428-2.568,0,0,.428,0,.428.428.856-.428,3.423-2.14,3.851-5.563,3.851.428,1.712-1.284,1.284-2.14,2.14-.428.428-.428,2.14-.856,2.568,0,.428-1.712,2.14-1.712,2.568s.428.856.856,1.284a42.164,42.164,0,0,1-7.275.856c.428-.428.428-1.284-.856-1.284.428-1.284,1.284-1.712,1.712-2.568v-1.284c.428-1.712.428-.856,0-2.14-.856-3,.428-3.851,1.284-6.847s.856-6.419,1.284-9.842c.428-1.284.856-4.707,0-5.991-.428-1.712-3-3-4.279-3.851a23.035,23.035,0,0,1-3.851-5.135,18.608,18.608,0,0,1-1.712-3c-.856-2.14,0-.856,0-2.14a11.847,11.847,0,0,1,.428-3.851c.428-1.284,1.712-2.568,2.568-3.851.428-1.284,0-3-1.284-3.423-.856-.428-1.712.428-2.14,0a5.436,5.436,0,0,1-3-1.712c-1.284-.856-1.712-2.14-3-3-.856-.856-1.712-.428-3-.428-1.284-.428-1.712-1.712-2.568-2.14-1.284-.856-2.14.428-3.423,0-1.284,0-3-1.712-4.279-2.14a6.556,6.556,0,0,1-4.707-4.707c-.856-2.14-2.14-3-3.423-4.707s-1.712-3-3.851-3.851c-.428,0,.428,1.712.428,2.14a37.013,37.013,0,0,1,3,4.279c1.284,2.14.856,2.14-.428.428A61.236,61.236,0,0,1,36.8,59.054c.856.856.856,0,0-.856s-2.14-1.284-2.568-2.14c-3-2.568-3.423-6.419-3.423-10.27,0-1.284.428-2.14.428-3.423,0-.856-.856-1.712-1.712-2.568a6.156,6.156,0,0,1-.856-1.284,18.116,18.116,0,0,0-2.14-3c-.428-.428-2.14-1.712-3.851-3a66.07,66.07,0,0,1,26.1-19.685c0,.428.428.856.428,1.712,1.284,1.284,2.14,1.284,3.423,1.712,0,1.712-2.568,2.14-3.851,1.712-1.712-.428-3.851-.856-5.135.856.856.428,3.423,2.568,3,.428H51.78c.856,0,3,.856,3.423.428.428,0,.428-1.284.856-1.712-.428,0-.856-.428-1.284,0,1.284-1.284,2.14-.428,3.851.428-1.712.856-.428,3.423.856,1.284,1.284-1.712-.428-2.568-1.712-3.423,1.712-2.14,2.568-2.14,4.279,0,.428-1.284,1.284-.856,2.568-.856v-.428c-.428,0-1.284-.428-1.712-.428,1.284-2.14.428-2.568,2.14-3,1.284-.428,5.135,0,5.991-1.284a60.59,60.59,0,0,0-8.559,1.712c-1.284.428-2.14,2.14-3.423,1.284-1.284-1.284.856-3,1.712-3.423h-.428A70.828,70.828,0,0,1,74.032,8.559c3,0,5.991.428,8.987.428-.856.428-.428.856-.856,1.284-1.284.856-3.851,1.712-5.563,2.568,2.14,0,7.275,2.14,8.131-.856a3.858,3.858,0,0,1-2.14-.428,13.386,13.386,0,0,1,4.279-2.14A66.268,66.268,0,0,1,119.82,28.671h0ZM131.8,54.347a.419.419,0,0,1,.428-.428c.428-.428,0-.856.428-1.284s.856-.428,1.284-.856l.428-.428a34,34,0,0,1,2.568,9.414l-1.284.428a2.223,2.223,0,0,1-1.712-.856l-1.712-1.712c-.428-.856,0-1.284,0-2.14-.428-.856-.856-1.712-.428-2.14Zm.856,33.379a27.689,27.689,0,0,1-3.423-3.851c-.856-1.712-.428-3-.428-4.707,0-1.284-.856-3.423,0-4.707l1.284-1.284c.428-.856.428-1.712,1.284-2.568s1.712-1.284,2.568-2.14a4.881,4.881,0,0,0,1.284-2.568,6.29,6.29,0,0,1,2.14-2.568,76.392,76.392,0,0,1,.856,9.842,71.314,71.314,0,0,1-2.14,16.689,9.317,9.317,0,0,1-3.423-2.14Zm0,0" transform="matrix(-0.309, 0.951, -0.951, -0.309, 152.445, 5.733)" fill="#13497f"/>
    </g>
    <path id="路径_251" data-name="路径 251" d="M1552,4272.8v15.941l8.426,6.149v48.28l-8.426,5.466v14.576l30.517-17.764v-17.991l-9.565,8.2v-30.972l9.565,6.149v-15.942Z" transform="translate(2662.593 -1236.227)" fill="url(#linear-gradient)"/>
  </g>
</svg>
