<svg xmlns="http://www.w3.org/2000/svg" width="35" height="35" viewBox="0 0 35 35">
  <g id="端口1icon" transform="translate(-276 -111)">
    <rect id="矩形_158" data-name="矩形 158" width="35" height="35" transform="translate(276 111)" fill="none"/>
    <g id="组_379" data-name="组 379" transform="translate(154.93 95.64)">
      <path id="路径_425" data-name="路径 425" d="M144.309,19.36H132.945a4.88,4.88,0,0,0-4.875,4.875V41.674a4.88,4.88,0,0,0,4.875,4.875h11.363a4.88,4.88,0,0,0,4.875-4.875V24.235A4.88,4.88,0,0,0,144.309,19.36ZM140.9,21.3l-.848,1.437H137.2l-.848-1.437Zm6.34,20.373a2.937,2.937,0,0,1-2.934,2.933H132.945a2.937,2.937,0,0,1-2.934-2.933V24.235a2.937,2.937,0,0,1,2.934-2.934H134.1l1.994,3.378h5.073l1.993-3.378h1.151a2.937,2.937,0,0,1,2.934,2.934Z" fill="#3598f1"/>
      <path id="路径_426" data-name="路径 426" d="M340.763,815.68h-7.952a.971.971,0,1,0,0,1.941h7.952a.971.971,0,1,0,0-1.941Z" transform="translate(-198.16 -774.397)" fill="#3598f1"/>
    </g>
  </g>
</svg>
