<svg id="私信icon" xmlns="http://www.w3.org/2000/svg" width="35" height="35" viewBox="0 0 35 35">
  <rect id="矩形_158" data-name="矩形 158" width="35" height="35" fill="none"/>
  <g id="组_393" data-name="组 393" transform="translate(-64.225 -61.99)">
    <path id="路径_446" data-name="路径 446" d="M361.907,354.156h-8.86a1.107,1.107,0,0,1,0-2.215h8.86a1.107,1.107,0,1,1,0,2.215Z" transform="translate(-275.825 -277.984)" fill="#f86400"/>
    <path id="路径_447" data-name="路径 447" d="M359.806,482.134h-6.758a1.107,1.107,0,0,1,0-2.215h6.758a1.107,1.107,0,0,1,0,2.215Z" transform="translate(-275.825 -401.532)" fill="#f86400"/>
    <path id="路径_448" data-name="路径 448" d="M97.24,77.279c0-7.329-6.954-13.289-15.5-13.289s-15.51,5.96-15.51,13.289c0,4.031,2.179,7.824,5.984,10.408a1.106,1.106,0,0,0,1.244-1.828,10.512,10.512,0,0,1-5.013-8.574c0-6.109,5.96-11.075,13.289-11.075s13.289,4.972,13.289,11.075S89.059,88.36,81.73,88.36a.681.681,0,0,0-.191.042,1.092,1.092,0,0,0-1.238.7c-.214.6-1.608,1.614-3.257,2.554.6-2.012.316-2.447.119-2.733a1.248,1.248,0,0,0-1.036-.554,1.107,1.107,0,0,0-.959,1.661,22.825,22.825,0,0,1-1.143,3.453A1.106,1.106,0,0,0,75.049,95a1.124,1.124,0,0,0,.453-.1c1.262-.566,5.109-2.394,6.5-4.346C90.423,90.438,97.24,84.537,97.24,77.279Z" fill="#3598f1"/>
  </g>
</svg>
