<svg xmlns="http://www.w3.org/2000/svg" width="35" height="35" viewBox="0 0 35 35">
  <g id="上架icon" transform="translate(-894 -723.691)">
    <path id="路径_466" data-name="路径 466" d="M11.221,10.372,7.542,6.692v15.82a.869.869,0,0,1-.92.92.869.869,0,0,1-.92-.92V6.692L2.023,10.372a.889.889,0,0,1-1.288,0,.889.889,0,0,1,0-1.288L5.887,3.933a.889.889,0,0,1,1.288,0l5.335,5.151a.911.911,0,1,1-1.288,1.288ZM24.834,7.244h-9.2a.869.869,0,0,1-.92-.92.869.869,0,0,1,.92-.92h9.2a.869.869,0,0,1,.92.92.869.869,0,0,1-.92.92Zm0,7.358H13.8a.92.92,0,0,1,0-1.84H24.834a.92.92,0,0,1,0,1.84Zm0,7.358H11.957a.92.92,0,1,1,0-1.84H24.834a.92.92,0,0,1,0,1.84Zm0,5.519a.92.92,0,0,1,0,1.84H.92a.92.92,0,0,1,0-1.84H24.834Z" transform="translate(898 724.703)" fill="#4ba794"/>
    <rect id="矩形_168" data-name="矩形 168" width="35" height="35" transform="translate(894 723.691)" fill="none"/>
  </g>
</svg>
