<svg xmlns="http://www.w3.org/2000/svg" width="35" height="35" viewBox="0 0 35 35">
  <g id="组_416" data-name="组 416" transform="translate(-276 -111)">
    <rect id="矩形_158" data-name="矩形 158" width="35" height="35" transform="translate(276 111)" fill="none"/>
    <g id="流量icon" transform="translate(279.804 114.811)">
      <path id="路径_419" data-name="路径 419" d="M72.167,412.637a10.94,10.94,0,0,1-5.9-2.078c-6.857-4.475-10.986-.693-11.152-.54a.7.7,0,0,1-.984-.028.682.682,0,0,1,.028-.97,8.026,8.026,0,0,1,3.533-1.759c2.023-.485,5.292-.5,9.337,2.147,5.929,3.865,8.7.679,10.03-.845a6.2,6.2,0,0,1,.568-.6.69.69,0,1,1,.859,1.081c-.069.055-.235.249-.388.416A7.723,7.723,0,0,1,72.167,412.637Z" transform="translate(-52.578 -396.068)" fill="#ff9d4d"/>
      <path id="路径_420" data-name="路径 420" d="M17.34,2.56A13.75,13.75,0,1,0,31.1,16.3,13.755,13.755,0,0,0,17.34,2.56Zm0,25.476A11.734,11.734,0,1,1,29.074,16.3,11.73,11.73,0,0,1,17.34,28.036Z" transform="translate(-3.584 -2.56)" fill="rgba(159,206,249,0.99)"/>
    </g>
  </g>
</svg>
