<svg xmlns="http://www.w3.org/2000/svg" width="137.541" height="112.974" viewBox="0 0 137.541 112.974">
  <g id="缺省图" transform="translate(0.001 -171.568)" opacity="0.57">
    <path id="路径_400" data-name="路径 400" d="M131.228,174.943a3.375,3.375,0,0,1-3.375,3.373h-13.5a3.374,3.374,0,1,1,0-6.748h13.5A3.377,3.377,0,0,1,131.228,174.943Zm18.377,0c0,1.864-1.064,3.373-2.377,3.373h-9.5c-1.314,0-2.377-1.51-2.377-3.373s1.062-3.375,2.377-3.375h9.5C148.541,171.568,149.605,173.08,149.605,174.943Zm20.627,13.689a3.938,3.938,0,0,1-3.941,3.939h-39a3.938,3.938,0,0,1,0-7.876h39a3.937,3.937,0,0,1,3.94,3.937Zm10.5,14.064a3.752,3.752,0,0,1-3.752,3.752H118.1a3.751,3.751,0,1,1,0-7.5h58.881A3.753,3.753,0,0,1,180.735,202.7Zm3.375,13.316a3.939,3.939,0,0,1-3.938,3.94H169.293a3.939,3.939,0,1,1,0-7.878h10.879a3.937,3.937,0,0,1,3.938,3.939Zm-21.754,0c0,2.176-2.62,3.94-5.859,3.94H81.2c-3.233,0-5.855-1.762-5.855-3.94s2.621-3.939,5.855-3.939h75.3C159.736,212.074,162.356,213.837,162.356,216.012Zm0,0" transform="translate(-65.217)" fill="#e3edf1"/>
    <path id="路径_401" data-name="路径 401" d="M156.179,535.657a4.126,4.126,0,0,1-4.127,4.127h-5.626a4.126,4.126,0,1,1,0-8.251h5.626a4.126,4.126,0,0,1,4.127,4.124Zm0,0" transform="translate(-123.174 -311.582)" fill="#e3edf1"/>
    <path id="路径_402" data-name="路径 402" d="M73.511,593.234a4.5,4.5,0,0,1-4.5,4.5H4.5a4.5,4.5,0,0,1,0-9H69.009a4.5,4.5,0,0,1,4.5,4.5Zm57.76,15.9a4.462,4.462,0,0,1-4.46,4.461H73.1a4.462,4.462,0,0,1,0-8.921h53.713A4.464,4.464,0,0,1,131.27,609.135Zm0,0" transform="translate(0 -361.095)" fill="#e3edf1"/>
    <path id="路径_403" data-name="路径 403" d="M571.742,776.927a3.227,3.227,0,0,1-3.23,3.228h-4.42a3.228,3.228,0,1,1,0-6.456h4.421A3.231,3.231,0,0,1,571.742,776.927Zm0,0" transform="translate(-485.479 -521.199)" fill="#e3edf1"/>
    <path id="路径_404" data-name="路径 404" d="M482.151,824.95a3.216,3.216,0,0,1-3.22,3.216H418.977a3.216,3.216,0,0,1,0-6.433h59.955A3.218,3.218,0,0,1,482.151,824.95Zm12.373,0a3.217,3.217,0,0,1-3.215,3.216h-2.568a3.216,3.216,0,1,1,0-6.433h2.568A3.217,3.217,0,0,1,494.524,824.95Zm0,0" transform="translate(-359.88 -562.777)" fill="#e3edf1"/>
    <path id="路径_405" data-name="路径 405" d="M315.022,210.009H258.689s-4.332-.541-4.605,5.147,0,65.327,0,73.084c-.091,6.333,7.76,7.713,10.563,4.107,3.793-4.6,1.355-10.022.543-10.294s52.814,0,52.814,0V217.321S318.752,209.994,315.022,210.009Zm0,0" transform="translate(-219.829 -33.262)" fill="#fff"/>
    <path id="路径_406" data-name="路径 406" d="M255.73,290.5a7.083,7.083,0,0,1-5.047-2.022,6.462,6.462,0,0,1-1.8-4.752c0-1.734-.014-6.1-.032-11.9-.062-19.845-.179-56.785.032-61.211.206-4.3,2.722-5.827,5.007-5.827a3.155,3.155,0,0,1,.386.02l56.245,0a2.946,2.946,0,0,1,2.278,1c1.886,2.087,1.42,6.877,1.4,7.08l0,65.364-.7,0s-23.833-.121-39.48-.121c-7.094,0-10.437.026-11.977.053a8.489,8.489,0,0,1,.493,1.3,9.581,9.581,0,0,1-1.849,8.806A6.166,6.166,0,0,1,255.73,290.5Zm-1.842-84.309c-1.02,0-3.413.44-3.608,4.494-.209,4.389-.094,41.306-.032,61.139.018,5.794.032,10.167.032,11.912a5.093,5.093,0,0,0,1.4,3.758,5.691,5.691,0,0,0,4.052,1.605,4.785,4.785,0,0,0,3.859-1.687,8.1,8.1,0,0,0,1.865-6.17,5.882,5.882,0,0,0-1.076-3.069.664.664,0,0,1-.392-.74c.044-.275.071-.442.92-.543v0l0,0c1.324-.158,4.641-.158,13.105-.158,14.061,0,34.731.1,38.783.117V212.814c.127-1.282.177-4.722-1.041-6.071a1.557,1.557,0,0,0-1.229-.542H254.186c-.1-.006-.177-.014-.3-.014Zm0,0" transform="translate(-215.326 -28.755)" fill="#21a2db"/>
    <path id="路径_407" data-name="路径 407" d="M309.113,301.808h49.554v13.614H309.113Zm0,18.283h46.9v2.934h-46.9Zm0,7.25h24.776v2.933H309.113Zm0,8.469h40.778v2.934H309.113Zm0,8.42h30.012v2.933H309.113Zm73.047,11.247c1.217,1.215,1.56,2.875.769,3.707s-2.42.518-3.634-.7L367.617,346.8c-1.214-1.215-1.559-2.876-.764-3.706s2.419-.518,3.631.7Zm0,0" transform="translate(-267.566 -112.735)" fill="#d0eaf1"/>
    <path id="路径_408" data-name="路径 408" d="M748.544,620.84a4,4,0,0,1-2.694-1.268l-11.676-11.683c-1.371-1.371-1.708-3.215-.77-4.2.893-.944,2.821-.616,4.132.7l11.674,11.683c1.371,1.369,1.713,3.212.774,4.194A1.922,1.922,0,0,1,748.544,620.84Zm-13.7-17.02a1.256,1.256,0,0,0-.93.354c-.654.681-.3,2.156.758,3.219l11.676,11.683a3.308,3.308,0,0,0,2.2,1.061,1.264,1.264,0,0,0,.934-.354c.652-.682.3-2.156-.761-3.217l-11.675-11.684A3.3,3.3,0,0,0,734.841,603.82Zm0,0" transform="translate(-634.369 -373.575)" fill="#21a2db"/>
    <path id="路径_409" data-name="路径 409" d="M734.816,611.189c-.894.267.333-.52-.109.577a2.734,2.734,0,0,0,.937,2.454l11.087,11.28c1.142,1.166,3.424,2.348,3.984,1.647.058-.074.123-.139.178-.211Zm0,0" transform="translate(-635.76 -380.509)" fill="#21a2db"/>
    <path id="路径_410" data-name="路径 410" d="M570.851,427.3a16.431,16.431,0,1,0,0,23.24,16.444,16.444,0,0,0,0-23.24" transform="translate(-469.854 -217.2)" fill="#fff"/>
    <path id="路径_411" data-name="路径 411" d="M554.721,451.526a17.123,17.123,0,1,1,12.11-5.008A17.028,17.028,0,0,1,554.721,451.526Zm0-32.845a15.724,15.724,0,1,0,11.118,4.6A15.626,15.626,0,0,0,554.724,418.682Zm0,0" transform="translate(-465.34 -212.687)" fill="#21a2db"/>
    <path id="路径_412" data-name="路径 412" d="M355.4,475.479h-2.011v-.7H355.4Zm-4.112,0h-2.1v-.7h2.1Zm-4.2,0h-2.1v-.7h2.1Zm-4.2,0h-2.1v-.7h2.1Zm-4.2,0h-2.1v-.7h2.1Zm11.523-5.73h-2.1v-.7h2.1Zm-4.2,0h-2.1v-.7h2.1Zm-4.2,0h-2.1v-.7h2.1Zm15.53,13.219h-1.963v-.7h1.963Zm-4.062,0h-2.1v-.7h2.1Zm-4.2,0h-2.1v-.7h2.1Zm-4.2,0h-2.1v-.7h2.1Zm-4.2,0h-2.1v-.7h2.1Zm-4.2,0h-2.1v-.7h2.1Zm14.584,7.027h-2.1v-.7h2.1Zm-4.2,0h-2.1v-.7h2.1Zm-4.2,0h-2.1v-.7h2.1Zm0,0M301.577,505.8s5.153,9.7-4.444,12.734h0c10.752-.1,61.865.267,61.865.267s4.062-2.531,5.181-5.283-.813-6.63-2.439-7.76C358.189,505.417,301.577,505.8,301.577,505.8Zm0,0" transform="translate(-256.998 -257.496)" fill="#cee7ee"/>
    <path id="路径_413" data-name="路径 413" d="M356.855,752.422h-.1c-.4,0-39.929-.283-56.5-.283-2.216,0-4.034,0-5.3.015l-.02.007-.569-.062-.044-.339.018-.332h.332l.038,0v0l.156.017c2.543-.819,4.226-2.2,5-4.1,1.492-3.644-.813-8.068-.835-8.113l-.271-.509.577,0c.271,0,27.26-.184,44.935-.184,9.138,0,14.275.048,15.265.145l.09.009.076.051c1.8,1.253,3.719,5.331,2.563,8.179-1.149,2.824-5.149,5.341-5.32,5.449Zm-56.606-.982c16.158,0,54.129.266,56.406.283.58-.377,3.982-2.664,4.958-5.064,1.046-2.585-.8-6.21-2.24-7.288-1.168-.09-6.248-.133-15.1-.133-16.269,0-40.432.156-44.378.179.592,1.324,1.942,4.962.622,8.193a7.4,7.4,0,0,1-3.769,3.835C297.742,751.441,298.924,751.44,300.249,751.44Zm0,0" transform="translate(-254.757 -490.762)" fill="#21a2db"/>
    <path id="路径_414" data-name="路径 414" d="M808.924,315.662a5.135,5.135,0,0,1-5.172,5.093H781.112a5.134,5.134,0,0,1-5.172-5.093v-1.725a5.136,5.136,0,0,1,5.172-5.095h22.64a5.136,5.136,0,0,1,5.172,5.095v1.725Zm0,0" transform="translate(-671.647 -118.823)" fill="#fff"/>
    <path id="路径_415" data-name="路径 415" d="M802.056,319.336h-22.64a5.4,5.4,0,0,1-5.435-5.357v-1.725a5.4,5.4,0,0,1,5.435-5.356h22.64a5.4,5.4,0,0,1,5.435,5.356v1.725a5.4,5.4,0,0,1-5.435,5.357Zm-22.64-11.913a4.876,4.876,0,0,0-4.909,4.831v1.725a4.876,4.876,0,0,0,4.909,4.831h22.64a4.876,4.876,0,0,0,4.908-4.831v-1.725a4.876,4.876,0,0,0-4.908-4.831Zm0,0" transform="translate(-669.951 -117.14)" fill="#5bb6d2"/>
    <path id="路径_416" data-name="路径 416" d="M848.578,401.121l1.981-5.6h7.319Zm2.352-5.07-1.368,3.867,6.424-3.867H850.93Zm0,0" transform="translate(-734.522 -193.856)" fill="#5bb6d2"/>
    <path id="路径_417" data-name="路径 417" d="M864.412,390.032l.764-2.245,2.111-.434,2.148.469.715.359.487.056-3.718,2.228Zm0,0" transform="translate(-748.228 -186.782)" fill="#fff"/>
    <path id="路径_418" data-name="路径 418" d="M832.939,339.028a1.578,1.578,0,1,0,1.577,1.53A1.578,1.578,0,0,0,832.939,339.028Zm-9.516,0a1.578,1.578,0,1,0,1.577,1.53,1.577,1.577,0,0,0-1.577-1.53Zm19.031,0a1.581,1.581,0,1,0,1.577,1.53A1.578,1.578,0,0,0,842.454,339.028Z" transform="translate(-711.382 -144.762)" fill="#21a2db"/>
    <text id="暂无数据" transform="translate(67.239 280.542)" fill="#9b9b9b" font-size="14" font-family="MicrosoftYaHei, Microsoft YaHei"><tspan x="-28" y="0">暂无数据</tspan></text>
  </g>
</svg>
